<svg width="89" height="40" viewBox="0 0 89 40" fill="none" xmlns="http://www.w3.org/2000/svg">
<path d="M44.6313 39.0396C69.1079 39.0396 88.9502 30.3003 88.9502 19.5198C88.9502 8.73932 69.1079 0 44.6313 0C20.1547 0 0.3125 8.73932 0.3125 19.5198C0.3125 30.3003 20.1547 39.0396 44.6313 39.0396Z" fill="white"/>
<path d="M40.6113 21.1167C42.3397 19.4447 43.636 18.3926 44.6881 17.1339C46.3226 15.1612 47.6189 12.9068 49.3661 11.0281C50.2115 10.1075 51.846 9.09298 52.8605 9.31842C54.758 9.73174 54.0629 11.5353 53.8187 12.9819C53.3302 16.0066 52.8417 19.0689 52.6351 22.1125C52.5787 22.9954 53.4993 23.9348 53.969 24.8554C54.9459 24.3105 56.2234 23.9912 56.8434 23.1833C57.5761 22.2064 57.7827 20.8161 58.1397 19.595C60.0184 13.3764 64.1704 9.80689 70.5956 8.94268C73.5452 8.54815 76.3069 9.31842 78.3171 11.5165C78.9934 12.268 79.3879 14.0528 78.9558 14.8418C78.1668 16.3448 76.645 15.6873 75.7245 14.6915C71.9295 10.6899 63.6068 14.2406 62.4983 20.7974C62.0474 23.5403 65.6921 26.1141 68.8296 25.156C70.4077 24.6675 71.7228 23.3712 73.2821 22.7512C74.3906 22.3191 75.7245 22.4318 76.9644 22.3003C76.6638 23.5027 76.739 25.062 75.9875 25.8323C72.4931 29.477 68.1345 30.2285 63.494 28.5189C61.2772 27.711 59.3233 27.2226 57.144 28.4813C56.3549 28.9322 55.3592 29.0449 54.4199 29.1576C50.5873 29.6085 48.8964 28.2183 48.3328 24.4045C48.2013 23.5403 47.7129 22.7324 47.3747 21.887C46.5856 22.3003 45.6838 22.5821 45.0639 23.1833C43.6548 24.536 42.5088 26.2081 41.0058 27.448C40.1229 28.1807 38.5635 28.9322 37.6805 28.6128C36.8727 28.3122 36.3466 26.6589 36.1024 25.5317C35.8394 24.3105 36.1212 22.9579 35.9709 21.6991C35.8582 20.8349 35.4073 20.0271 35.1067 19.2005C34.3928 19.595 33.6037 19.8768 32.965 20.3653C30.8984 22.0185 28.9445 23.8221 26.8216 25.4002C23.0078 28.2371 18.6492 29.2328 13.9524 28.6879C9.06773 28.1243 6.28724 24.179 7.28296 19.3507C8.57927 13.0571 16.1129 7.68394 22.3878 8.98025C24.4168 9.39357 26.2767 10.8965 28.0052 12.1741C28.4748 12.5122 28.5312 14.0716 28.1555 14.654C27.8549 15.1049 26.5398 15.0485 25.7319 14.9358C25.0931 14.8418 24.5295 14.297 23.9096 13.9964C18.9498 11.6292 13.3888 14.1467 11.9046 19.4447C11.0404 22.5446 12.75 25.0996 15.9814 25.0057C17.7098 24.9681 19.5885 24.536 21.1479 23.7845C26.7276 21.098 31.1426 16.9648 34.7309 11.9486C35.1818 11.3286 35.5012 10.5396 36.0836 10.0887C36.8163 9.50629 37.906 8.67966 38.5823 8.86753C39.2586 9.0554 39.9913 10.3141 40.0853 11.1783C40.3107 13.2074 40.1604 15.2739 40.2168 17.3217C40.2544 18.2987 40.4234 19.2568 40.6301 21.0792L40.6113 21.1167Z" fill="black"/>
</svg>
